<svg version="1.2" xmlns="http://www.w3.org/2000/svg" viewBox="0 0 4149 923" width="4149" height="923">
	<defs>
		<radialGradient id="g1" cx="0" cy="0" r="1" gradientUnits="userSpaceOnUse" gradientTransform="matrix(1007.182,432.835,-432.835,1007.182,437.065,185.841)">
			<stop offset="0" stop-color="#74cbc6"/>
			<stop offset=".894" stop-color="#ed1f6d"/>
		</radialGradient>
		<linearGradient id="g2" x2="1" gradientUnits="userSpaceOnUse" gradientTransform="matrix(235.129,596.745,-598.168,235.689,758.82,-56.111)">
			<stop offset=".222" stop-color="#74cbc6" stop-opacity="1"/>
			<stop offset=".719" stop-color="#74cbc6" stop-opacity="0"/>
		</linearGradient>
	</defs>
	<style>
		.s0 { fill: #ffffff } 
		.s1 { fill: url(#g1) } 
		.s2 { fill: url(#g2) } 
	</style>
	<g id="Layer 1">
	</g>
	<g id="Layer 2">
		<g id="&lt;Group&gt;">
			<g id="&lt;Group&gt;">
				<path id="&lt;Compound Path&gt;" class="s0" d="m1669.88 539.79h-114.1q-2.77 0-4.57-1.81-1.8-1.81-1.8-4.58v-152.86q0-2.77 1.8-4.58 1.8-1.81 4.57-1.81h114.1q2.77 0 4.57 1.81 1.8 1.81 1.8 4.58 0 2.5-1.8 4.45-1.8 1.94-4.57 1.94h-107.73v81.16h69.79q2.49 0 4.43 1.94 1.94 1.95 1.94 4.45 0 2.78-1.94 4.58-1.94 1.81-4.43 1.81h-69.79v46.14h107.73q2.77 0 4.57 1.94 1.8 1.94 1.8 4.45 0 2.77-1.8 4.58-1.8 1.81-4.57 1.81z"/>
				<path id="&lt;Compound Path&gt;" class="s0" d="m1882.57 539.79q-3.04 0-4.7-2.22l-122.41-140.07v135.9q0 2.77-1.8 4.58-1.81 1.81-4.57 1.81-2.5 0-4.43-1.81-1.94-1.81-1.94-4.58v-152.86q0-4.17 4.15-6.11 3.88-1.39 7.2 1.94l122.14 140.08v-135.91q-0.01-2.77 1.8-4.58 1.79-1.81 4.56-1.81 2.77 0 4.57 1.81 1.8 1.81 1.8 4.58v152.86q0 4.17-4.15 6.11-0.83 0.28-2.22 0.28z"/>
				<path id="&lt;Compound Path&gt;" class="s0" d="m2018.83 539.79q-2.77 0-4.57-1.81-1.8-1.81-1.8-4.58v-146.47h-60.37q-2.5 0-4.43-1.94-1.94-1.95-1.94-4.45 0-2.77 1.94-4.58 1.93-1.81 4.43-1.81h133.49q2.76 0 4.57 1.81 1.79 1.81 1.8 4.58-0.01 2.5-1.8 4.45-1.81 1.94-4.57 1.94h-60.38v146.47q0 2.77-1.8 4.58-1.8 1.81-4.57 1.81z"/>
				<path id="&lt;Compound Path&gt;" class="s0" d="m2278.88 539.79h-114.1q-2.78 0-4.57-1.81-1.8-1.81-1.8-4.58v-152.86q0-2.77 1.8-4.58 1.79-1.81 4.57-1.81h114.1q2.76 0 4.57 1.81 1.8 1.81 1.8 4.58 0 2.5-1.8 4.45-1.81 1.94-4.57 1.94h-107.73v81.16h69.79q2.49 0 4.43 1.94 1.93 1.95 1.94 4.45-0.01 2.78-1.94 4.58-1.94 1.81-4.43 1.81h-69.79v46.14h107.73q2.76 0 4.57 1.94 1.8 1.94 1.8 4.45 0 2.77-1.8 4.58-1.81 1.81-4.57 1.81z"/>
				<path id="&lt;Compound Path&gt;" class="s0" d="m2482.3 543.79q-3.42 0-5.4-2.5l-42.1-56.42q-2.49 0-4.15-1.81-1.67-1.8-1.66-4.58-0.01-2.5 1.8-4.45 1.79-1.94 4.56-1.94 8.31 0 15.65-3.2 7.33-3.19 12.88-8.61 5.53-5.42 8.72-12.93 3.19-7.5 3.19-15.84 0-8.34-3.19-15.7-3.19-7.36-8.72-12.93-5.55-5.55-12.88-8.75-7.34-3.19-15.65-3.2h-61.2v146.47q0 2.77-1.8 4.58-1.81 1.81-4.57 1.81-2.77 0-4.57-1.81-1.8-1.81-1.8-4.58v-152.86q0-2.77 1.8-4.58 1.81-1.81 4.58-1.81h67.72q10.83 0 20.54 4.17 9.72 4.17 16.93 11.39 7.22 7.23 11.39 16.96 4.15 9.73 4.16 20.84 0 9.17-2.91 17.51-2.91 8.34-8.03 15.15-5.13 6.81-12.33 11.67-7.2 4.86-15.5 7.09l37.66 50.58q1.38 2.22 1.11 4.86-0.28 2.64-2.54 4.31-1.42 1.11-3.69 1.11z"/>
				<path id="&lt;Compound Path&gt;" class="s0" d="m2627.83 539.79q-2.77 0-4.57-1.81-1.8-1.81-1.8-4.58v-146.47h-60.37q-2.5 0-4.43-1.94-1.95-1.95-1.94-4.45-0.01-2.77 1.94-4.58 1.93-1.81 4.43-1.81h133.48q2.77 0 4.58 1.81 1.79 1.81 1.8 4.58-0.01 2.5-1.8 4.45-1.81 1.94-4.58 1.94h-60.37v146.47q0 2.77-1.8 4.58-1.8 1.81-4.57 1.81z"/>
				<path id="&lt;Compound Path&gt;" fill-rule="evenodd" class="s0" d="m2754.67 539.79q-1.11 0-2.77-0.56-2.5-1.39-3.32-3.89-0.84-2.5 0.27-4.72l76.44-152.86q1.66-3.61 5.54-3.61 3.87 0 5.81 3.61l76.17 152.86q1.38 3.33-0.28 6.11-1.67 3.06-5.54 3.06h-147.89q-1.67 0-2.22-0.28-0.83 0.28-2.21 0.28zm10.24-13.06h131.83l-65.91-132.29z"/>
				<path id="&lt;Compound Path&gt;" class="s0" d="m3057.65 539.79h-47.64q-2.5 0-4.43-1.81-1.94-1.81-1.94-4.58 0-2.51 1.94-4.45 1.93-1.94 4.43-1.94h17.45v-140.08h-17.45q-2.5 0-4.43-1.94-1.94-1.95-1.94-4.45 0-2.77 1.94-4.58 1.93-1.81 4.43-1.81h47.64q2.76 0 4.57 1.81 1.79 1.81 1.8 4.58-0.01 2.5-1.8 4.45-1.81 1.94-4.57 1.94h-17.45v140.08h17.45q2.76 0 4.57 1.94 1.79 1.94 1.8 4.45-0.01 2.77-1.8 4.58-1.81 1.81-4.57 1.81z"/>
				<path id="&lt;Compound Path&gt;" class="s0" d="m3303.57 539.79q-3.04 0-4.7-2.22l-122.42-140.07v135.9q0 2.77-1.8 4.58-1.8 1.81-4.56 1.81-2.5 0-4.43-1.81-1.95-1.81-1.94-4.58v-152.86q-0.01-4.17 4.15-6.11 3.88-1.39 7.2 1.94l122.13 140.08v-135.91q0-2.77 1.81-4.58 1.79-1.81 4.56-1.81 2.77 0 4.57 1.81 1.8 1.81 1.8 4.58v152.86q0 4.17-4.15 6.11-0.83 0.28-2.22 0.28z"/>
				<path id="&lt;Compound Path&gt;" class="s0" d="m3526.24 539.79q-2.5 0-4.44-1.81-1.94-1.81-1.94-4.58v-137.02l-75.33 80.32q-1.94 1.95-4.43 1.95h-0.27q-2.5 0-4.43-1.95l-75.61-80.32v137.02q0 2.77-1.8 4.58-1.81 1.81-4.57 1.81-2.77 0-4.57-1.81-1.8-1.81-1.8-4.58v-152.86q0-4.17 3.88-6.11 4.15-1.39 7.2 1.66l81.7 86.99 81.97-86.99q2.77-3.05 6.93-1.66 3.87 1.67 3.87 6.11v152.86q0 2.77-1.8 4.58-1.8 1.81-4.56 1.81z"/>
				<path id="&lt;Compound Path&gt;" class="s0" d="m3699.88 539.79h-114.1q-2.78 0-4.57-1.81-1.81-1.81-1.8-4.58v-152.86q-0.01-2.77 1.8-4.58 1.79-1.81 4.57-1.81h114.1q2.76 0 4.57 1.81 1.8 1.81 1.8 4.58 0 2.5-1.8 4.45-1.81 1.94-4.57 1.94h-107.73v81.16h69.79q2.49 0 4.43 1.94 1.93 1.95 1.93 4.45 0 2.78-1.93 4.58-1.94 1.81-4.43 1.81h-69.79v46.14h107.73q2.76 0 4.57 1.94 1.8 1.94 1.8 4.45 0 2.77-1.8 4.58-1.81 1.81-4.57 1.81z"/>
				<path id="&lt;Compound Path&gt;" class="s0" d="m3912.57 539.79q-3.05 0-4.71-2.22l-122.41-140.07v135.9q0 2.77-1.8 4.58-1.8 1.81-4.56 1.81-2.5 0-4.44-1.81-1.94-1.81-1.94-4.58v-152.86q0-4.17 4.16-6.11 3.88-1.39 7.2 1.94l122.13 140.08v-135.91q0-2.77 1.8-4.58 1.8-1.81 4.57-1.81 2.77 0 4.57 1.81 1.8 1.81 1.8 4.58v152.86q0 4.17-4.15 6.11-0.83 0.28-2.22 0.28z"/>
				<path id="&lt;Compound Path&gt;" class="s0" d="m4048.83 539.79q-2.78 0-4.58-1.81-1.8-1.81-1.8-4.58v-146.47h-60.37q-2.5 0-4.43-1.94-1.94-1.95-1.94-4.45 0-2.77 1.94-4.58 1.93-1.81 4.43-1.81h133.49q2.76 0 4.57 1.81 1.8 1.81 1.8 4.58 0 2.5-1.8 4.45-1.81 1.94-4.57 1.94h-60.38v146.47q0 2.77-1.8 4.58-1.8 1.81-4.56 1.81z"/>
			</g>
			<g id="&lt;Group&gt;">
				<g id="&lt;Group&gt;">
					<path id="&lt;Compound Path&gt;" fill-rule="evenodd" class="s1" d="m39.42 386.44c22.54-46.19 67.06-132.35 139.68-123.16 39.29 4.97 38.97 56.77 38.97 56.77 0 0 0.16 0.48 1.23-1.27 76.47-124.14 225.97-275.02 342-273.82 105.74 1.1 132.72 107.2 138.92 177.2 5.1 88.6-17.87 171.37-28.07 208.56-10.21 37.19-35.01 112.29-69.64 186.67-34.64 74.38-62.72 168.82-65.27 180.85-2.55 12.03-5.83 13.12-20.04 11.39-12.76-2.9-11.02-10.45 2.32-52.21 13.35-41.77 22.63-80.06 66.78-170.24 20.12-41.08 84.61-203.76 87.05-322.41 0.99-48.18-14.24-245.22-156.51-191.97-120.95 45.26-230.44 193.12-264.23 243.35-24.5 36.42-48.78 84.77-51.38 96.91-2.6 12.14-6.5 11.92-17.13 11.92-10.62 0-11.49-2.82-13.44-7.8-1.95-4.99 5.85-17.13 10.41-34.04 4.55-16.91 12.36-59.62 4.77-83.47-7.59-23.85-29.27-19.08-43.58-9.54-43.85 29.23-80.54 110.32-85.82 129.94-2.31 8.57-9.56 8.74-21.6 7.58-12.03-1.15-6.43-14.84-6.43-14.84 0 0 1.39-6.65 11.01-26.37zm749.84 44.29c7.54-0.8 10.25 3.36 8.63 15.01-1.42 10.22-13.15 27.28-17.84 47.31-4.69 20.03-3.94 23.68-1.59 23.14 8.66-3.43 49.08-22.19 60.8-33.56 11.73-11.37 12.27-7.76 17.5-7.76 3.79-0.9 9.57-0.9 13.54 5.96 3.97 6.85-5.05 12.99-11.91 16.96-6.86 3.97-42.22 29.77-65.86 35.72-23.63 5.95-45.98 3.55-44.9-23.33 1.09-26.88 15.53-51.35 20.34-67.01 6.05-19.69 14.45-11.72 21.29-12.44zm58.1-167.59c6.39-3.04 9.44-0.15 9.44-0.15 3.35-1.67 8.07-1.07 11.72 2.89 3.65 3.96 5.48 10.05-2.13 13.86-7.61 3.8-26.64 8.37-42.93 13.4-16.3 5.02-19.8 0.6-22.23-6.09-2.44-6.7 2.43-10.21 10.35-12.49 7.92-2.28 16.29-4.72 16.29-4.72 0 0 13.09-3.65 19.49-6.7zm118 380.96c0 0-2.7 8.95-12.04 8.87-11.15-0.09-22.09-0.19-15.96-15.61 6.12-15.42 36.07-94.01 44.96-114.69 9.67-22.5 29.85-69.61 36.08-84.03 0.48-1.11-0.38-2.33-1.59-2.25-15.02 0.94-63.57 2.48-76.28 1.85-6.84-0.15-12.74-3.1-12.74-9.15 0-6.05 2.07-10.18 13.13-10.04 10.31 0.14 69.51-0.62 84.03-2.03 1.5-0.15 2.78-1.09 3.39-2.47 4.6-10.43 15.64-35.51 23.99-58.8 9.6-24.64 24.94-62.42 29.37-75.41 5.75-14.46 34.97-86.62 34.97-87.06 0-0.44 20.81-51.79 25.53-67.29 5.61-16.82 8.71-28.33 10.33-33.35 1.62-5.02 2.66-8.11 11.22-8.85 8.55-0.74 17.26 0.15 17.7 7.97 0.45 7.82-6.79 27.15-13.57 46.48-6.79 19.33-22.29 60.8-34.53 87.5-10.33 24.8-20.96 52.24-25.97 63.75-5.02 11.51-18.6 50.76-24.2 64.19-5.3 12.68-20.85 50.73-24.06 58.43-0.3 0.72 0.18 1.49 0.95 1.56 2.56 0.22 8.53-0.28 16.91-1.26 10.99-1.28 109.1-12.51 136.21-15.64 1.51-0.18 2.78-1.21 3.27-2.65 6.12-18.07 31.57-83.43 38.04-99.17 6.78-16.53 35.41-86.18 39.69-95.91 4.28-9.74 17.27-43.54 19.63-50.32 2.36-6.79 20.21-55.49 21.98-63.9 1.78-8.41 7.53-24.49 9.89-32.46 2.36-7.97 2.36-9.74 12.54-9.89 10.19-0.15 19.19 0 15.79 13.87-3.39 13.87-18.74 59.76-26.71 80.72-7.96 20.95-25.52 66.7-29.95 76.73-4.43 10.04-23.02 58.14-27.3 66.85-4.28 8.7-23.32 57.55-23.32 57.55 0 0-17.26 46.92-20.36 54.3-3.1 7.38-24.64 62.72-24.64 62.72 0 0-17.41 43.82-24.79 60.94-7.38 17.12-32.32 77.91-39.7 94.88-7.38 16.97-28.33 68.03-32.9 78.06-4.58 10.04-28.04 64.64-31.44 73.2-3.39 8.56-21.54 56.96-26.7 69.35-5.17 12.4-12.84 35.56-14.91 41.02-2.06 5.46-1.03 8.12-11.36 8.12-10.33 0-3.84 0-9 0-5.17 0-9.59-4.43-5.76-14.9 3.84-10.48 25.83-74.67 33.2-91.49 7.38-16.83 34.53-85.3 39.26-95.77 4.72-10.48 22.28-53.13 27.15-64.49 4.87-11.36 22.87-54.15 27.3-63.45 4.42-9.3 19.92-47.66 23.17-54.75 3.24-7.08 19.47-47.36 24.34-58.73 3.43-7.99 5.9-14.96 7.07-18.39 0.39-1.15-0.51-2.33-1.73-2.23-11.83 0.89-62.84 7.68-85.46 10.29-21.76 2.52-56.82 5.46-66.97 6.55-1.72 0.19-3.2 1.29-3.86 2.89-6.57 15.95-42.64 103.4-52.68 126.18-11.07 25.08-30.61 81.61-30.61 81.61zm427.78-381.46c6.46-1.42 11.82-1.73 18.12 3.78 6.31 5.52 3 10.4-4.41 13.87-7.41 3.47-30.26 8.36-41.77 12.45-11.5 4.1-18.91 0.63-21.28-7.09-2.36-7.72 8.67-10.56 8.67-10.56 6.94-1.57 34.2-11.03 40.67-12.45zm-61.71 205.99c-5.31 10.4-13.56 40.57-12.09 44.98 1.47 4.41 4.06 2.6 17.29-4.41 10.05-5.08 35.14-17.06 45.42-26.33 10.29-9.26 11.87-8.02 16.61-8.47 4.3-0.57 11.76 0.34 14.69 7.68 2.94 7.35-5.53 10.62-18.3 19.21-11.3 8.14-42.15 29.27-66.56 33.68-24.41 4.4-36.73-5.54-37.29-19.78-0.57-14.24 6.55-36.72 9.27-43.73 2.71-7.01 10.05-21.92 11.86-31.19 1.81-9.27 6.55-9.15 9.15-9.49 2.6-0.34 4.18-1.24 12.21 0.22 12.99 4.19 4.97 21.59 4.97 21.59 0 0-1.92 5.65-7.23 16.04z"/>
				</g>
				<g id="&lt;Group&gt;">
					<path id="&lt;Compound Path&gt;" class="s2" d="m700.21 222.16c-6.18-70-33.17-176.1-138.9-177.2-116.05-1.2-265.54 149.68-342.01 273.82-1.07 1.75-1.23 1.27-1.23 1.27 0 0 0.32-51.81-38.96-56.78-72.63-9.18-117.15 76.97-139.68 123.17-9.62 19.73-11.01 26.37-11.01 26.37 0 0-5.62 13.68 6.42 14.84 12.04 1.15 19.3 0.99 21.61-7.58 5.27-19.62 41.96-100.71 85.81-129.94 14.31-9.53 35.98-14.31 43.57 9.54 7.59 23.84-0.2 66.55-4.77 83.47-4.54 16.92-12.35 29.05-10.41 34.04 1.96 4.98 2.83 7.81 13.46 7.81 10.61 0 14.51 0.22 17.12-11.94 2.6-12.13 26.89-60.48 51.38-96.91 33.79-50.22 143.29-198.07 264.22-243.34 142.28-53.25 157.52 143.79 156.52 191.98-2.44 118.64-66.93 281.32-87.05 322.4-44.16 90.19-53.43 128.47-66.78 170.24-13.33 41.76-15.07 49.3-2.32 52.21 14.21 1.74 17.48 0.65 20.04-11.39 2.55-12.03 30.63-106.47 65.26-180.85 34.64-74.38 59.43-149.49 69.64-186.67 10.22-37.2 33.19-119.96 28.07-208.56z"/>
				</g>
			</g>
		</g>
	</g>
</svg>